<?xml version="1.0" standalone="no"?>
<!DOCTYPE svg PUBLIC "-//W3C//DTD SVG 20010904//EN"
 "http://www.w3.org/TR/2001/REC-SVG-20010904/DTD/svg10.dtd">
<svg version="1.0" xmlns="http://www.w3.org/2000/svg"
 width="720.000000pt" height="720.000000pt" viewBox="0 0 720.000000 720.000000"
 preserveAspectRatio="xMidYMid meet">
<metadata>
Created by potrace 1.11, written by Peter Selinger 2001-2013
</metadata>
<g transform="translate(0.000000,720.000000) scale(0.100000,-0.100000)"
fill="#000000" stroke="none">
<path d="M3390 7194 c-658 -48 -1260 -250 -1785 -600 -765 -510 -1301 -1285
-1510 -2184 -68 -290 -95 -552 -90 -870 12 -774 262 -1498 734 -2123 40 -53
89 -115 109 -137 l37 -40 640 363 640 363 5 1114 5 1115 23 56 c95 235 329
356 564 290 167 -46 296 -179 338 -348 l11 -43 1050 0 1051 0 35 -35 c32 -32
35 -40 30 -77 -3 -26 -15 -51 -31 -67 l-26 -26 -1055 -3 -1055 -2 0 -65 0 -65
984 0 c971 0 984 0 1009 -20 40 -32 48 -72 37 -185 -12 -130 -24 -192 -56
-290 -61 -187 -169 -362 -308 -501 -120 -119 -207 -183 -341 -249 -396 -195
-848 -176 -1225 51 -49 30 -92 54 -95 54 -3 0 -5 -326 -5 -724 0 -676 -1 -732
-20 -840 -58 -341 -192 -627 -414 -886 -47 -55 -61 -77 -51 -82 43 -25 416
-97 620 -120 143 -16 569 -16 710 0 669 76 1235 293 1760 673 181 131 294 230
471 412 368 376 640 818 812 1317 132 384 191 718 197 1120 4 239 -3 350 -35
576 -88 619 -340 1207 -738 1719 -117 150 -446 477 -600 595 -547 420 -1148
667 -1812 745 -131 15 -509 27 -620 19z"/>
</g>
</svg>
